# xmcd
#
# Track frame offsets:
#	150
#	12590
#	22601
#	34965
#	46351
#	58143
#	69447
#	81833
#	92220
#	103469
#	115845
#	125439
#	137145
#	147887
#	158923
#	167913
#	178441
#	188691
#	201214
#	213482
#	225299
#	237216
#	247934
#	259416
#	271394
#	283644
#	293663
#	304663
#	314909
#	325077
#
# Disc length: 4517 seconds
#
# Revision: 0
# Processed by: cddbd v1.4PL0 Copyright (c) Steve Scherf et al.
# Submitted via: EasyCDDAExtractor 4.6.0.1
#
DISCID=c211a31e
DTITLE=Various Artist - A Million Dollars Worth Of Doo-Wop  Vol 12
DYEAR=1900
DGENRE=Blues
TTITLE0=Montclairs - The Bells
TTITLE1=Marathons - Don't Know Why
TTITLE2=Gales - I Love You
TTITLE3=Vels - Please Be Mine
TTITLE4=Five Speeds - Goodbye
TTITLE5=Stefan Ross and group - Please Be My Love
TTITLE6=Citations (Buddy and the) - Don't Let Her Have Her Way
TTITLE7=Kashmirs - Tippi-Tippi-Wang-Wang
TTITLE8=Ensenadas - On And On
TTITLE9=Invictors - Where All Lovers Meet
TTITLE10=Delighters (Rose Morris and the) - I Love The Life I Live
TTITLE11=Peter Crawford and group - There Goes A Young Love
TTITLE12=Dewdrops (Little Henry and the) - What Have I Done Wrong
TTITLE13=Teen-Timers (Lyn Andrews and the) - Ask Me To Go Steady
TTITLE14=Four Bars - Why Did You Do It
TTITLE15=Travelers (Ronnie Gates and the) - For My Very Own
TTITLE16=Quats - In The Morning
TTITLE17=Slip and Dell and group - Don't Take A Chance
TTITLE18=Lapels - I Want A True Friend
TTITLE19=Fabulous Fanatics - Sweeter Than Wine
TTITLE20=Herman Willis and group - Forever In Love
TTITLE21=Uniques - A Million Miles Away
TTITLE22=Splendors - The Golden Years
TTITLE23=Kid and group - Sleep Tight
TTITLE24=Crowd - I Have Nothing At All
TTITLE25=Love-Tonics - I Love Nadine
TTITLE26=Appeggios - I'll Be Singing
TTITLE27=Nobels - Serenades
TTITLE28=Dots - Good Luck To You
TTITLE29=Crescents - You Can Make It If You Try
EXTD=
EXTT0=
EXTT1=
EXTT2=
EXTT3=
EXTT4=
EXTT5=
EXTT6=
EXTT7=
EXTT8=
EXTT9=
EXTT10=
EXTT11=
EXTT12=
EXTT13=
EXTT14=
EXTT15=
EXTT16=
EXTT17=
EXTT18=
EXTT19=
EXTT20=
EXTT21=
EXTT22=
EXTT23=
EXTT24=
EXTT25=
EXTT26=
EXTT27=
EXTT28=
EXTT29=
PLAYORDER=
